<?xml version="1.0" encoding="UTF-8"?>
<svg id="_图层_2" data-name="图层 2" xmlns="http://www.w3.org/2000/svg" viewBox="0 0 389.45 111.99">
  <defs>
    <style>
      .cls-1, .cls-2 {
        font-size: 8.28px;
      }

      .cls-1, .cls-3 {
        fill: #fff;
        font-family: TimesNewRomanPS-BoldMT, 'Times New Roman';
        font-weight: 700;
      }

      .cls-4 {
        font-size: 6.4px;
      }

      .cls-4, .cls-2 {
        font-family: TimesNewRomanPSMT, 'Times New Roman';
      }

      .cls-4, .cls-2, .cls-5 {
        fill: #393939;
      }

      .cls-6 {
        fill: #d9d9d9;
      }

      .cls-6, .cls-5 {
        stroke-width: 0px;
      }

      .cls-7 {
        letter-spacing: 1.22em;
      }

      .cls-8 {
        letter-spacing: 1.22em;
      }

      .cls-9 {
        letter-spacing: 1.22em;
      }

      .cls-10 {
        stroke-width: .25px;
      }

      .cls-10, .cls-11 {
        fill: none;
        stroke: #000;
        stroke-miterlimit: 10;
      }

      .cls-11 {
        stroke-width: .25px;
      }

      .cls-3 {
        font-size: 5.52px;
      }
    </style>
  </defs>
  <g id="_图层_1-2" data-name="图层 1">
    <g>
      <polyline class="cls-5" points="225.7 8.29 225.92 8.29 225.92 8.52 126.55 25.09 126.33 25.09 126.33 24.86"/>
      <polyline class="cls-5" points="126.33 24.86 126.55 24.86 176.24 41.42 176.24 41.65 176.01 41.65 126.33 25.09"/>
      <polyline class="cls-5" points="176.01 41.42 176.24 41.42 209.36 57.98 209.36 58.21 209.13 58.21 176.01 41.65"/>
      <polyline class="cls-5" points="176.01 41.42 176.24 41.42 176.24 41.65 143.12 58.21 142.89 58.21 142.89 57.98"/>
      <polyline class="cls-5" points="142.89 57.98 143.12 57.98 167.96 74.54 167.96 74.77 167.73 74.77 142.89 58.21"/>
      <polyline class="cls-5" points="126.33 24.86 126.55 24.86 126.55 25.09 76.87 41.65 76.64 41.65 76.64 41.42"/>
      <polyline class="cls-5" points="76.64 41.42 76.87 41.42 109.99 57.98 109.99 58.21 109.76 58.21 76.64 41.65"/>
      <polyline class="cls-5" points="109.76 57.98 109.99 57.98 109.99 58.21 93.43 74.77 93.2 74.77 93.2 74.54"/>
      <polyline class="cls-5" points="76.64 41.42 76.87 41.42 76.87 41.65 43.75 58.21 43.52 58.21 43.52 57.98"/>
      <polyline class="cls-5" points="43.52 57.98 43.75 57.98 60.31 74.54 60.31 74.77 60.08 74.77 43.52 58.21"/>
      <polyline class="cls-5" points="43.52 57.98 43.75 57.98 43.75 58.21 27.18 74.77 26.96 74.77 26.96 74.54"/>
      <polyline class="cls-5" points="26.96 74.54 27.18 74.54 27.18 74.77 14.82 91.33 14.59 91.33 14.59 91.1"/>
      <polyline class="cls-5" points="225.7 8.29 225.92 8.29 325.29 24.86 325.29 25.09 325.06 25.09 225.7 8.52"/>
      <polyline class="cls-5" points="325.06 24.86 325.29 24.86 374.98 41.42 374.98 41.65 374.75 41.65 325.06 25.09"/>
      <polyline class="cls-5" points="325.06 24.86 325.29 24.86 325.29 25.09 275.61 41.65 275.38 41.65 275.38 41.42"/>
      <polyline class="cls-5" points="275.38 41.42 275.61 41.42 275.61 41.65 242.49 58.21 242.26 58.21 242.26 57.98"/>
      <polyline class="cls-5" points="275.38 41.42 275.61 41.42 308.73 57.98 308.73 58.21 308.5 58.21 275.38 41.65"/>
      <polyline class="cls-5" points="308.5 57.98 308.73 57.98 308.73 58.21 292.17 74.77 291.94 74.77 291.94 74.54"/>
      <polyline class="cls-5" points="308.5 57.98 308.73 57.98 325.29 74.54 325.29 74.77 325.06 74.77 308.5 58.21"/>
      <polyline class="cls-5" points="374.75 41.42 374.98 41.42 383.26 57.98 383.26 58.21 383.03 58.21 374.75 41.65"/>
      <polyline class="cls-5" points="374.75 41.42 374.98 41.42 374.98 41.65 366.7 58.21 366.47 58.21 366.47 57.98"/>
      <polyline class="cls-5" points="325.06 74.54 325.29 74.54 333.58 91.1 333.58 91.33 333.35 91.33 325.06 74.77"/>
      <polyline class="cls-5" points="325.06 74.54 325.29 74.54 325.29 74.77 317.01 91.33 316.78 91.33 316.78 91.1"/>
      <polyline class="cls-5" points="291.94 74.54 292.17 74.54 300.45 91.1 300.45 91.33 300.22 91.33 291.94 74.77"/>
      <polyline class="cls-5" points="291.94 74.54 292.17 74.54 292.17 74.77 283.89 91.33 283.66 91.33 283.66 91.1"/>
      <polyline class="cls-5" points="242.26 57.98 242.49 57.98 250.77 74.54 250.77 74.77 250.54 74.77 242.26 58.21"/>
      <polyline class="cls-5" points="242.26 57.98 242.49 57.98 242.49 58.21 234.21 74.77 233.98 74.77 233.98 74.54"/>
      <polyline class="cls-5" points="209.13 57.98 209.36 57.98 217.64 74.54 217.64 74.77 217.41 74.77 209.13 58.21"/>
      <polyline class="cls-5" points="209.13 57.98 209.36 57.98 209.36 58.21 201.08 74.77 200.85 74.77 200.85 74.54"/>
      <polyline class="cls-5" points="167.73 74.54 167.96 74.54 176.24 91.1 176.24 91.33 176.01 91.33 167.73 74.77"/>
      <polyline class="cls-5" points="167.73 74.54 167.96 74.54 167.96 74.77 159.68 91.33 159.45 91.33 159.45 91.1"/>
      <polyline class="cls-5" points="109.76 57.98 109.99 57.98 118.27 74.54 118.27 74.77 118.04 74.77 109.76 58.21"/>
      <polyline class="cls-5" points="142.89 57.98 143.12 57.98 143.12 58.21 134.84 74.77 134.61 74.77 134.61 74.54"/>
      <polyline class="cls-5" points="93.2 74.54 93.43 74.54 101.71 91.1 101.71 91.33 101.48 91.33 93.2 74.77"/>
      <polyline class="cls-5" points="93.2 74.54 93.43 74.54 93.43 74.77 85.15 91.33 84.92 91.33 84.92 91.1"/>
      <polyline class="cls-5" points="60.08 74.54 60.31 74.54 68.59 91.1 68.59 91.33 68.36 91.33 60.08 74.77"/>
      <polyline class="cls-5" points="60.08 74.54 60.31 74.54 60.31 74.77 52.03 91.33 51.8 91.33 51.8 91.1"/>
      <polyline class="cls-5" points="26.96 74.54 27.18 74.54 35.47 91.1 35.47 91.33 35.24 91.33 26.96 74.77"/>
      <polyline class="cls-5" points="14.59 91.1 14.82 91.1 14.82 91.33 6.54 107.89 6.31 107.89 6.31 107.66"/>
      <polyline class="cls-5" points="14.59 91.1 14.82 91.1 23.1 107.66 23.1 107.89 22.87 107.89 14.59 91.33"/>
      <path class="cls-5" d="M234.09,8.4c0,4.57-3.71,8.28-8.28,8.28s-8.28-3.71-8.28-8.28S221.23.13,225.81.13s8.28,3.71,8.28,8.28"/>
      <path class="cls-10" d="M234.09,8.4c0,4.57-3.71,8.28-8.28,8.28s-8.28-3.71-8.28-8.28S221.23.13,225.81.13s8.28,3.71,8.28,8.28Z"/>
      <path class="cls-5" d="M333.46,24.97c0,4.57-3.71,8.28-8.28,8.28s-8.28-3.71-8.28-8.28,3.71-8.28,8.28-8.28,8.28,3.71,8.28,8.28"/>
      <circle class="cls-10" cx="325.18" cy="24.97" r="8.28" transform="translate(264.87 345.48) rotate(-83.74)"/>
      <path class="cls-6" d="M134.72,24.97c0,4.57-3.71,8.28-8.28,8.28s-8.28-3.71-8.28-8.28,3.71-8.28,8.28-8.28,8.28,3.71,8.28,8.28"/>
      <circle class="cls-10" cx="126.44" cy="24.97" r="8.28" transform="translate(86.21 147.41) rotate(-82.98)"/>
      <path class="cls-5" d="M383.14,41.53c0,4.57-3.71,8.28-8.28,8.28s-8.28-3.71-8.28-8.28,3.71-8.28,8.28-8.28,8.28,3.71,8.28,8.28"/>
      <path class="cls-10" d="M383.14,41.53c0,4.57-3.71,8.28-8.28,8.28s-8.28-3.71-8.28-8.28,3.71-8.28,8.28-8.28,8.28,3.71,8.28,8.28Z"/>
      <path class="cls-6" d="M283.77,41.53c0,4.57-3.71,8.28-8.28,8.28s-8.28-3.71-8.28-8.28,3.71-8.28,8.28-8.28,8.28,3.71,8.28,8.28"/>
      <path class="cls-10" d="M283.77,41.53c0,4.57-3.71,8.28-8.28,8.28s-8.28-3.71-8.28-8.28,3.71-8.28,8.28-8.28,8.28,3.71,8.28,8.28Z"/>
      <path class="cls-5" d="M316.89,58.09c0,4.57-3.71,8.28-8.28,8.28s-8.28-3.71-8.28-8.28,3.71-8.28,8.28-8.28,8.28,3.71,8.28,8.28"/>
      <path class="cls-10" d="M316.89,58.09c0,4.57-3.71,8.28-8.28,8.28s-8.28-3.71-8.28-8.28,3.71-8.28,8.28-8.28,8.28,3.71,8.28,8.28Z"/>
      <path class="cls-5" d="M250.65,58.09c0,4.57-3.71,8.28-8.28,8.28s-8.28-3.71-8.28-8.28,3.71-8.28,8.28-8.28,8.28,3.71,8.28,8.28"/>
      <path class="cls-10" d="M250.65,58.09c0,4.57-3.71,8.28-8.28,8.28s-8.28-3.71-8.28-8.28,3.71-8.28,8.28-8.28,8.28,3.71,8.28,8.28Z"/>
      <path class="cls-6" d="M300.33,74.65c0,4.57-3.71,8.28-8.28,8.28s-8.28-3.71-8.28-8.28,3.71-8.28,8.28-8.28,8.28,3.71,8.28,8.28"/>
      <circle class="cls-10" cx="292.05" cy="74.65" r="8.28" transform="translate(185.98 356.81) rotate(-83.74)"/>
      <path class="cls-6" d="M333.46,74.65c0,4.57-3.71,8.28-8.28,8.28s-8.28-3.71-8.28-8.28,3.71-8.28,8.28-8.28,8.28,3.71,8.28,8.28"/>
      <circle class="cls-10" cx="325.18" cy="74.65" r="8.28" transform="translate(211.35 388.27) rotate(-82.98)"/>
      <path class="cls-5" d="M184.4,41.53c0,4.57-3.71,8.28-8.28,8.28s-8.28-3.71-8.28-8.28,3.71-8.28,8.28-8.28,8.28,3.71,8.28,8.28"/>
      <path class="cls-10" d="M184.4,41.53c0,4.57-3.71,8.28-8.28,8.28s-8.28-3.71-8.28-8.28,3.71-8.28,8.28-8.28,8.28,3.71,8.28,8.28Z"/>
      <path class="cls-5" d="M85.03,41.53c0,4.57-3.71,8.28-8.28,8.28s-8.28-3.71-8.28-8.28,3.71-8.28,8.28-8.28,8.28,3.71,8.28,8.28"/>
      <path class="cls-10" d="M85.03,41.53c0,4.57-3.71,8.28-8.28,8.28s-8.28-3.71-8.28-8.28,3.71-8.28,8.28-8.28,8.28,3.71,8.28,8.28Z"/>
      <path class="cls-5" d="M217.52,58.09c0,4.57-3.71,8.28-8.28,8.28s-8.28-3.71-8.28-8.28,3.71-8.28,8.28-8.28,8.28,3.71,8.28,8.28"/>
      <path class="cls-10" d="M217.52,58.09c0,4.57-3.71,8.28-8.28,8.28s-8.28-3.71-8.28-8.28,3.71-8.28,8.28-8.28,8.28,3.71,8.28,8.28Z"/>
      <path class="cls-6" d="M101.59,74.65c0,4.57-3.71,8.28-8.28,8.28s-8.28-3.71-8.28-8.28,3.71-8.28,8.28-8.28,8.28,3.71,8.28,8.28"/>
      <circle class="cls-10" cx="93.31" cy="74.65" r="8.28" transform="translate(7.17 157.47) rotate(-82.53)"/>
      <path class="cls-6" d="M51.91,58.09c0,4.57-3.71,8.28-8.28,8.28s-8.28-3.71-8.28-8.28,3.71-8.28,8.28-8.28,8.28,3.71,8.28,8.28"/>
      <path class="cls-10" d="M51.91,58.09c0,4.57-3.71,8.28-8.28,8.28s-8.28-3.71-8.28-8.28,3.71-8.28,8.28-8.28,8.28,3.71,8.28,8.28Z"/>
      <path class="cls-5" d="M118.15,58.09c0,4.57-3.71,8.28-8.28,8.28s-8.28-3.71-8.28-8.28,3.71-8.28,8.28-8.28,8.28,3.71,8.28,8.28"/>
      <path class="cls-10" d="M118.15,58.09c0,4.57-3.71,8.28-8.28,8.28s-8.28-3.71-8.28-8.28,3.71-8.28,8.28-8.28,8.28,3.71,8.28,8.28Z"/>
      <path class="cls-5" d="M35.35,74.65c0,4.57-3.71,8.28-8.28,8.28s-8.28-3.71-8.28-8.28,3.71-8.28,8.28-8.28,8.28,3.71,8.28,8.28"/>
      <circle class="cls-10" cx="27.07" cy="74.65" r="8.28" transform="translate(-50.96 89.41) rotate(-80.78)"/>
      <path class="cls-5" d="M68.47,74.65c0,4.57-3.71,8.28-8.28,8.28s-8.28-3.71-8.28-8.28,3.71-8.28,8.28-8.28,8.28,3.71,8.28,8.28"/>
      <circle class="cls-10" cx="60.19" cy="74.65" r="8.28" transform="translate(-23.14 122.11) rotate(-80.78)"/>
      <path class="cls-6" d="M22.98,91.21c0,4.57-3.71,8.28-8.28,8.28s-8.28-3.71-8.28-8.28,3.71-8.28,8.28-8.28,8.28,3.71,8.28,8.28"/>
      <path class="cls-10" d="M22.98,91.21c0,4.57-3.71,8.28-8.28,8.28s-8.28-3.71-8.28-8.28,3.71-8.28,8.28-8.28,8.28,3.71,8.28,8.28Z"/>
      <path class="cls-5" d="M151.28,58.09c0,4.57-3.71,8.28-8.28,8.28s-8.28-3.71-8.28-8.28,3.71-8.28,8.28-8.28,8.28,3.71,8.28,8.28"/>
      <path class="cls-10" d="M151.28,58.09c0,4.57-3.71,8.28-8.28,8.28s-8.28-3.71-8.28-8.28,3.71-8.28,8.28-8.28,8.28,3.71,8.28,8.28Z"/>
      <path class="cls-6" d="M176.12,74.65c0,4.57-3.71,8.28-8.28,8.28s-8.28-3.71-8.28-8.28,3.71-8.28,8.28-8.28,8.28,3.71,8.28,8.28"/>
      <circle class="cls-10" cx="167.84" cy="74.65" r="8.28" transform="translate(75.32 233.34) rotate(-83.74)"/>
      <path class="cls-5" d="M6.36,103.58h3.75c1.37,0,2.48,1.11,2.48,2.48v3.31c0,1.37-1.11,2.48-2.48,2.48H2.61c-1.37,0-2.48-1.11-2.48-2.48v-3.31c0-1.37,1.11-2.48,2.48-2.48"/>
      <path class="cls-10" d="M6.36,103.58h3.75c1.37,0,2.48,1.11,2.48,2.48v3.31c0,1.37-1.11,2.48-2.48,2.48H2.61c-1.37,0-2.48-1.11-2.48-2.48v-3.31c0-1.37,1.11-2.48,2.48-2.48h3.75Z"/>
      <path class="cls-5" d="M22.93,103.58h3.75c1.37,0,2.48,1.11,2.48,2.48v3.31c0,1.37-1.11,2.48-2.48,2.48h-7.51c-1.37,0-2.48-1.11-2.48-2.48v-3.31c0-1.37,1.11-2.48,2.48-2.48"/>
      <path class="cls-11" d="M22.93,103.58h3.75c1.37,0,2.48,1.11,2.48,2.48v3.31c0,1.37-1.11,2.48-2.48,2.48h-7.51c-1.37,0-2.48-1.11-2.48-2.48v-3.31c0-1.37,1.11-2.48,2.48-2.48h3.75Z"/>
      <path class="cls-5" d="M51.91,87.02h3.7c1.37,0,2.48,1.11,2.48,2.48v3.31c0,1.37-1.11,2.48-2.48,2.48h-7.4c-1.37,0-2.48-1.11-2.48-2.48v-3.31c0-1.37,1.11-2.48,2.48-2.48"/>
    </g>
    <text class="cls-3" transform="translate(1.44 109.58)"><tspan x="0" y="0">NI</tspan><tspan class="cls-9" x="6.13" y="0">L</tspan><tspan x="16.56" y="0">NIL</tspan></text>
    <g>
      <path class="cls-11" d="M51.91,87.02h3.7c1.37,0,2.48,1.11,2.48,2.48v3.31c0,1.37-1.11,2.48-2.48,2.48h-7.4c-1.37,0-2.48-1.11-2.48-2.48v-3.31c0-1.37,1.11-2.48,2.48-2.48h3.7Z"/>
      <path class="cls-5" d="M68.47,87.02h3.7c1.37,0,2.48,1.11,2.48,2.48v3.31c0,1.37-1.11,2.48-2.48,2.48h-7.4c-1.37,0-2.49-1.11-2.49-2.48v-3.31c0-1.37,1.11-2.48,2.48-2.48"/>
      <path class="cls-11" d="M68.47,87.02h3.7c1.37,0,2.48,1.11,2.48,2.48v3.31c0,1.37-1.11,2.48-2.48,2.48h-7.4c-1.37,0-2.49-1.11-2.49-2.48v-3.31c0-1.37,1.11-2.48,2.48-2.48h3.7Z"/>
      <path class="cls-5" d="M85.03,87.02h3.7c1.37,0,2.48,1.11,2.48,2.48v3.31c0,1.37-1.11,2.48-2.48,2.48h-7.4c-1.37,0-2.48-1.11-2.48-2.48v-3.31c0-1.37,1.11-2.48,2.48-2.48"/>
      <path class="cls-11" d="M85.03,87.02h3.7c1.37,0,2.48,1.11,2.48,2.48v3.31c0,1.37-1.11,2.48-2.48,2.48h-7.4c-1.37,0-2.48-1.11-2.48-2.48v-3.31c0-1.37,1.11-2.48,2.48-2.48h3.7Z"/>
      <path class="cls-5" d="M101.59,87.02h3.7c1.37,0,2.48,1.11,2.48,2.48v3.31c0,1.37-1.11,2.48-2.48,2.48h-7.4c-1.37,0-2.48-1.11-2.48-2.48v-3.31c0-1.37,1.11-2.48,2.48-2.48"/>
      <path class="cls-11" d="M101.59,87.02h3.7c1.37,0,2.48,1.11,2.48,2.48v3.31c0,1.37-1.11,2.48-2.48,2.48h-7.4c-1.37,0-2.48-1.11-2.48-2.48v-3.31c0-1.37,1.11-2.48,2.48-2.48h3.7Z"/>
      <path class="cls-5" d="M35.35,87.02h3.7c1.37,0,2.48,1.11,2.48,2.48v3.31c0,1.37-1.11,2.48-2.48,2.48h-7.4c-1.37,0-2.48-1.11-2.48-2.48v-3.31c0-1.37,1.11-2.48,2.48-2.48"/>
      <path class="cls-11" d="M35.35,87.02h3.7c1.37,0,2.48,1.11,2.48,2.48v3.31c0,1.37-1.11,2.48-2.48,2.48h-7.4c-1.37,0-2.48-1.11-2.48-2.48v-3.31c0-1.37,1.11-2.48,2.48-2.48h3.7Z"/>
    </g>
    <text class="cls-3" transform="translate(30.48 93.02)"><tspan x="0" y="0">NI</tspan><tspan class="cls-9" x="6.13" y="0">L</tspan><tspan x="16.56" y="0">NI</tspan><tspan class="cls-9" x="22.69" y="0">L</tspan><tspan x="33.11" y="0">NI</tspan><tspan class="cls-8" x="39.25" y="0">L</tspan><tspan x="49.67" y="0">NI</tspan><tspan class="cls-8" x="55.8" y="0">L</tspan><tspan x="66.23" y="0">NIL</tspan></text>
    <g>
      <path class="cls-5" d="M118.15,70.46h3.7c1.37,0,2.48,1.11,2.48,2.48v3.31c0,1.37-1.11,2.48-2.48,2.48h-7.4c-1.37,0-2.48-1.11-2.48-2.48v-3.31c0-1.37,1.11-2.48,2.48-2.48"/>
      <path class="cls-11" d="M118.15,70.46h3.7c1.37,0,2.48,1.11,2.48,2.48v3.31c0,1.37-1.11,2.48-2.48,2.48h-7.4c-1.37,0-2.48-1.11-2.48-2.48v-3.31c0-1.37,1.11-2.48,2.48-2.48h3.7Z"/>
      <path class="cls-5" d="M134.72,70.46h3.7c1.37,0,2.48,1.11,2.48,2.48v3.31c0,1.37-1.11,2.48-2.48,2.48h-7.4c-1.37,0-2.48-1.11-2.48-2.48v-3.31c0-1.37,1.11-2.48,2.48-2.48"/>
      <path class="cls-11" d="M134.72,70.46h3.7c1.37,0,2.48,1.11,2.48,2.48v3.31c0,1.37-1.11,2.48-2.48,2.48h-7.4c-1.37,0-2.48-1.11-2.48-2.48v-3.31c0-1.37,1.11-2.48,2.48-2.48h3.7Z"/>
      <path class="cls-5" d="M159.56,87.02h3.7c1.37,0,2.48,1.11,2.48,2.48v3.31c0,1.37-1.11,2.48-2.48,2.48h-7.4c-1.37,0-2.48-1.11-2.48-2.48v-3.31c0-1.37,1.11-2.48,2.48-2.48"/>
    </g>
    <text class="cls-3" transform="translate(113.28 76.46)"><tspan x="0" y="0">NI</tspan><tspan class="cls-8" x="6.13" y="0">L</tspan><tspan x="16.56" y="0">NIL</tspan></text>
    <g>
      <path class="cls-11" d="M159.56,87.02h3.7c1.37,0,2.48,1.11,2.48,2.48v3.31c0,1.37-1.11,2.48-2.48,2.48h-7.4c-1.37,0-2.48-1.11-2.48-2.48v-3.31c0-1.37,1.11-2.48,2.48-2.48h3.7Z"/>
      <path class="cls-5" d="M176.12,87.02h3.7c1.37,0,2.48,1.11,2.48,2.48v3.31c0,1.37-1.11,2.48-2.48,2.48h-7.4c-1.37,0-2.48-1.11-2.48-2.48v-3.31c0-1.37,1.11-2.48,2.48-2.48"/>
      <path class="cls-11" d="M176.12,87.02h3.7c1.37,0,2.48,1.11,2.48,2.48v3.31c0,1.37-1.11,2.48-2.48,2.48h-7.4c-1.37,0-2.48-1.11-2.48-2.48v-3.31c0-1.37,1.11-2.48,2.48-2.48h3.7Z"/>
      <path class="cls-5" d="M200.96,70.46h3.7c1.37,0,2.48,1.11,2.48,2.48v3.31c0,1.37-1.11,2.48-2.48,2.48h-7.4c-1.37,0-2.48-1.11-2.48-2.48v-3.31c0-1.37,1.11-2.48,2.48-2.48"/>
    </g>
    <text class="cls-3" transform="translate(154.68 93.02)"><tspan x="0" y="0">NI</tspan><tspan class="cls-8" x="6.13" y="0">L</tspan><tspan x="16.56" y="0">NIL</tspan></text>
    <g>
      <path class="cls-11" d="M200.96,70.46h3.7c1.37,0,2.48,1.11,2.48,2.48v3.31c0,1.37-1.11,2.48-2.48,2.48h-7.4c-1.37,0-2.48-1.11-2.48-2.48v-3.31c0-1.37,1.11-2.48,2.48-2.48h3.7Z"/>
      <path class="cls-5" d="M217.52,70.46h3.7c1.37,0,2.48,1.11,2.48,2.48v3.31c0,1.37-1.11,2.48-2.48,2.48h-7.4c-1.37,0-2.48-1.11-2.48-2.48v-3.31c0-1.37,1.11-2.48,2.48-2.48"/>
      <path class="cls-11" d="M217.52,70.46h3.7c1.37,0,2.48,1.11,2.48,2.48v3.31c0,1.37-1.11,2.48-2.48,2.48h-7.4c-1.37,0-2.48-1.11-2.48-2.48v-3.31c0-1.37,1.11-2.48,2.48-2.48h3.7Z"/>
      <path class="cls-5" d="M234.09,70.46h3.7c1.37,0,2.48,1.11,2.48,2.48v3.31c0,1.37-1.11,2.48-2.48,2.48h-7.4c-1.37,0-2.48-1.11-2.48-2.48v-3.31c0-1.37,1.11-2.48,2.48-2.48"/>
      <path class="cls-11" d="M234.09,70.46h3.7c1.37,0,2.48,1.11,2.48,2.48v3.31c0,1.37-1.11,2.48-2.48,2.48h-7.4c-1.37,0-2.48-1.11-2.48-2.48v-3.31c0-1.37,1.11-2.48,2.48-2.48h3.7Z"/>
      <path class="cls-5" d="M250.65,70.46h3.7c1.37,0,2.48,1.11,2.48,2.48v3.31c0,1.37-1.11,2.48-2.48,2.48h-7.4c-1.37,0-2.48-1.11-2.48-2.48v-3.31c0-1.37,1.11-2.48,2.48-2.48"/>
      <path class="cls-11" d="M250.65,70.46h3.7c1.37,0,2.48,1.11,2.48,2.48v3.31c0,1.37-1.11,2.48-2.48,2.48h-7.4c-1.37,0-2.48-1.11-2.48-2.48v-3.31c0-1.37,1.11-2.48,2.48-2.48h3.7Z"/>
      <path class="cls-5" d="M283.77,87.02h3.7c1.37,0,2.48,1.11,2.48,2.48v3.31c0,1.37-1.11,2.48-2.48,2.48h-7.4c-1.37,0-2.48-1.11-2.48-2.48v-3.31c0-1.37,1.11-2.48,2.48-2.48"/>
      <path class="cls-11" d="M283.77,87.02h3.7c1.37,0,2.48,1.11,2.48,2.48v3.31c0,1.37-1.11,2.48-2.48,2.48h-7.4c-1.37,0-2.48-1.11-2.48-2.48v-3.31c0-1.37,1.11-2.48,2.48-2.48h3.7Z"/>
      <path class="cls-5" d="M300.33,87.02h3.7c1.37,0,2.48,1.11,2.48,2.48v3.31c0,1.37-1.11,2.48-2.48,2.48h-7.4c-1.37,0-2.48-1.11-2.48-2.48v-3.31c0-1.37,1.11-2.48,2.48-2.48"/>
      <path class="cls-11" d="M300.33,87.02h3.7c1.37,0,2.48,1.11,2.48,2.48v3.31c0,1.37-1.11,2.48-2.48,2.48h-7.4c-1.37,0-2.48-1.11-2.48-2.48v-3.31c0-1.37,1.11-2.48,2.48-2.48h3.7Z"/>
    </g>
    <text class="cls-4" transform="translate(195.2 60.23)"><tspan x="0" y="0">1</tspan></text>
    <text class="cls-1" transform="translate(205.14 60.45)"><tspan x="0" y="0">23</tspan></text>
    <text class="cls-4" transform="translate(228.32 60.23)"><tspan x="0" y="0">1</tspan></text>
    <text class="cls-1" transform="translate(238.26 60.45)"><tspan x="0" y="0">28</tspan></text>
    <text class="cls-3" transform="translate(196.09 76.46)"><tspan x="0" y="0">NI</tspan><tspan class="cls-8" x="6.13" y="0">L</tspan><tspan x="16.56" y="0">NI</tspan><tspan class="cls-8" x="22.69" y="0">L</tspan><tspan x="33.11" y="0">NI</tspan><tspan class="cls-7" x="39.25" y="0">L</tspan><tspan x="49.67" y="0">NIL</tspan></text>
    <g>
      <path class="cls-5" d="M316.89,87.02h3.7c1.37,0,2.48,1.11,2.48,2.48v3.31c0,1.37-1.11,2.48-2.48,2.48h-7.4c-1.37,0-2.48-1.11-2.48-2.48v-3.31c0-1.37,1.11-2.48,2.48-2.48"/>
      <path class="cls-11" d="M316.89,87.02h3.7c1.37,0,2.48,1.11,2.48,2.48v3.31c0,1.37-1.11,2.48-2.48,2.48h-7.4c-1.37,0-2.48-1.11-2.48-2.48v-3.31c0-1.37,1.11-2.48,2.48-2.48h3.7Z"/>
      <path class="cls-5" d="M333.46,87.02h3.7c1.37,0,2.48,1.11,2.48,2.48v3.31c0,1.37-1.11,2.48-2.48,2.48h-7.4c-1.37,0-2.48-1.11-2.48-2.48v-3.31c0-1.37,1.11-2.48,2.48-2.48"/>
      <path class="cls-11" d="M333.46,87.02h3.7c1.37,0,2.48,1.11,2.48,2.48v3.31c0,1.37-1.11,2.48-2.48,2.48h-7.4c-1.37,0-2.48-1.11-2.48-2.48v-3.31c0-1.37,1.11-2.48,2.48-2.48h3.7Z"/>
      <path class="cls-5" d="M366.58,53.89h3.7c1.37,0,2.48,1.11,2.48,2.49v3.31c0,1.37-1.11,2.48-2.48,2.48h-7.4c-1.37,0-2.48-1.11-2.48-2.48v-3.31c0-1.37,1.11-2.49,2.48-2.49"/>
      <path class="cls-11" d="M366.58,53.89h3.7c1.37,0,2.48,1.11,2.48,2.49v3.31c0,1.37-1.11,2.48-2.48,2.48h-7.4c-1.37,0-2.48-1.11-2.48-2.48v-3.31c0-1.37,1.11-2.49,2.48-2.49h3.7Z"/>
    </g>
    <text class="cls-3" transform="translate(278.89 93.02)"><tspan x="0" y="0">NI</tspan><tspan class="cls-8" x="6.13" y="0">L</tspan><tspan x="16.56" y="0">NI</tspan><tspan class="cls-8" x="22.69" y="0">L</tspan><tspan x="33.11" y="0">NI</tspan><tspan class="cls-7" x="39.25" y="0">L</tspan><tspan x="49.67" y="0">NIL</tspan></text>
    <g>
      <path class="cls-5" d="M383.14,53.89h3.7c1.37,0,2.48,1.11,2.48,2.49v3.31c0,1.37-1.11,2.48-2.48,2.48h-7.4c-1.37,0-2.48-1.11-2.48-2.48v-3.31c0-1.37,1.11-2.49,2.48-2.49"/>
      <path class="cls-11" d="M383.14,53.89h3.7c1.37,0,2.48,1.11,2.48,2.49v3.31c0,1.37-1.11,2.48-2.48,2.48h-7.4c-1.37,0-2.48-1.11-2.48-2.48v-3.31c0-1.37,1.11-2.49,2.48-2.49h3.7Z"/>
    </g>
    <text class="cls-1" transform="translate(221.7 10.77)"><tspan x="0" y="0">26</tspan></text>
    <text class="cls-3" transform="translate(361.69 59.89)"><tspan x="0" y="0">NI</tspan><tspan class="cls-8" x="6.13" y="0">L</tspan><tspan x="16.56" y="0">NIL</tspan></text>
    <text class="cls-1" transform="translate(321.06 27.33)"><tspan x="0" y="0">41</tspan></text>
    <text class="cls-1" transform="translate(370.74 43.89)"><tspan x="0" y="0">47</tspan></text>
    <text class="cls-2" transform="translate(271.38 44.11)"><tspan x="0" y="0">30</tspan></text>
    <text class="cls-1" transform="translate(304.5 60.45)"><tspan x="0" y="0">38</tspan></text>
    <text class="cls-2" transform="translate(287.94 77.23)"><tspan x="0" y="0">35</tspan></text>
    <text class="cls-2" transform="translate(321.06 77.23)"><tspan x="0" y="0">39</tspan></text>
    <text class="cls-2" transform="translate(122.34 27.55)"><tspan x="0" y="0">17</tspan></text>
    <text class="cls-1" transform="translate(172.02 43.89)"><tspan x="0" y="0">21</tspan></text>
    <text class="cls-1" transform="translate(138.9 60.45)"><tspan x="0" y="0">19</tspan></text>
    <text class="cls-2" transform="translate(163.74 77.23)"><tspan x="0" y="0">20</tspan></text>
    <text class="cls-1" transform="translate(72.66 43.89)"><tspan x="0" y="0">14</tspan></text>
    <text class="cls-1" transform="translate(105.78 60.45)"><tspan x="0" y="0">16</tspan></text>
    <text class="cls-2" transform="translate(89.22 77.23)"><tspan x="0" y="0">15</tspan></text>
    <text class="cls-2" transform="translate(39.54 60.67)"><tspan x="0" y="0">10</tspan></text>
    <text class="cls-1" transform="translate(24.97 77.01)"><tspan x="0" y="0">7</tspan></text>
    <text class="cls-2" transform="translate(12.6 93.79)"><tspan x="0" y="0">3</tspan></text>
    <text class="cls-4" transform="translate(.57 93.35)"><tspan x="0" y="0">1</tspan></text>
    <text class="cls-4" transform="translate(13.04 76.79)"><tspan x="0" y="0">1</tspan></text>
    <text class="cls-4" transform="translate(29.6 60.23)"><tspan x="0" y="0">2</tspan></text>
    <text class="cls-4" transform="translate(95.84 60.23)"><tspan x="0" y="0">1</tspan></text>
    <text class="cls-4" transform="translate(62.72 43.67)"><tspan x="0" y="0">2</tspan></text>
    <text class="cls-4" transform="translate(46.17 76.79)"><tspan x="0" y="0">1</tspan></text>
    <text class="cls-1" transform="translate(56.1 77.01)"><tspan x="0" y="0">12</tspan></text>
    <text class="cls-4" transform="translate(79.29 76.79)"><tspan x="0" y="0">1</tspan></text>
    <text class="cls-4" transform="translate(153.8 76.79)"><tspan x="0" y="0">1</tspan></text>
    <text class="cls-4" transform="translate(128.96 60.23)"><tspan x="0" y="0">1</tspan></text>
    <text class="cls-4" transform="translate(162.08 43.67)"><tspan x="0" y="0">2</tspan></text>
    <text class="cls-4" transform="translate(112.4 27.11)"><tspan x="0" y="0">3</tspan></text>
    <text class="cls-4" transform="translate(278 76.79)"><tspan x="0" y="0">1</tspan></text>
    <text class="cls-4" transform="translate(311.12 76.79)"><tspan x="0" y="0">1</tspan></text>
    <text class="cls-4" transform="translate(294.56 60.23)"><tspan x="0" y="0">1</tspan></text>
    <text class="cls-4" transform="translate(261.44 43.67)"><tspan x="0" y="0">2</tspan></text>
    <text class="cls-4" transform="translate(360.8 43.67)"><tspan x="0" y="0">1</tspan></text>
    <text class="cls-4" transform="translate(335.96 27.11)"><tspan x="0" y="0">2</tspan></text>
    <text class="cls-4" transform="translate(211.76 8.45)"><tspan x="0" y="0">3</tspan></text>
  </g>
</svg>